<svg xmlns="http://www.w3.org/2000/svg" viewBox="0 0 760 430"><rect width="760" height="430" rx="28" fill="#f7f9fb"/><path d="M155 96C260 28 500 36 604 112M122 214C245 330 512 330 642 214M380 75C304 150 304 278 380 354M380 75C456 150 456 278 380 354" fill="none" stroke="#c9dbe5" stroke-width="2"/><rect x="282" y="154" width="196" height="118" rx="24" fill="#2878b8"/><text x="380" y="204" text-anchor="middle" font-family="IBM Plex Mono,monospace" font-size="15" font-weight="700" fill="#fff">UNIFIED API</text><text x="380" y="232" text-anchor="middle" font-family="Atkinson Hyperlegible,sans-serif" font-size="15" fill="#e8fffb">one interface for methods</text><g font-family="Atkinson Hyperlegible,sans-serif" font-size="15" fill="#17212b"><rect x="64" y="78" width="160" height="76" rx="18" fill="#fff" stroke="#dce8ee"/><text x="144" y="112" text-anchor="middle" font-weight="700">Data objects</text><text x="144" y="134" text-anchor="middle" fill="#5f7080">AnnData / MuData</text><rect x="536" y="78" width="160" height="76" rx="18" fill="#fff" stroke="#dce8ee"/><text x="616" y="112" text-anchor="middle" font-weight="700">Algorithm ports</text><text x="616" y="134" text-anchor="middle" fill="#5f7080">Python + Rust</text><rect x="64" y="276" width="160" height="76" rx="18" fill="#fff" stroke="#dce8ee"/><text x="144" y="310" text-anchor="middle" font-weight="700">Tutorials</text><text x="144" y="332" text-anchor="middle" fill="#5f7080">reproducible workflows</text><rect x="536" y="276" width="160" height="76" rx="18" fill="#fff" stroke="#dce8ee"/><text x="616" y="310" text-anchor="middle" font-weight="700">Agents</text><text x="616" y="332" text-anchor="middle" fill="#5f7080">plan / run / report</text></g></svg>
