<svg xmlns="http://www.w3.org/2000/svg" viewBox="0 0 1024 1024" role="img" aria-labelledby="title desc">
  <title id="title">OmicVerse logo</title>
  <desc id="desc">Green DNA and leaf emblem on a black background.</desc>
  <defs>
    <linearGradient id="green" x1="0" x2="1" y1="0" y2="1">
      <stop offset="0" stop-color="#a7e43a"/>
      <stop offset="0.52" stop-color="#62bd32"/>
      <stop offset="1" stop-color="#3e9828"/>
    </linearGradient>
    <linearGradient id="light" x1="0" x2="1" y1="0" y2="1">
      <stop offset="0" stop-color="#c4ff4d"/>
      <stop offset="1" stop-color="#61bd32"/>
    </linearGradient>
  </defs>
  <rect width="1024" height="1024" fill="#000"/>
  <g fill="url(#green)">
    <path d="M512 143C586 219 604 300 555 377C523 350 501 307 496 253C482 304 454 343 414 373C382 283 414 215 512 143Z"/>
    <path d="M456 188C370 252 369 350 440 427C385 397 352 351 349 294C316 358 328 424 390 477C306 435 280 344 318 270C344 222 396 186 456 188Z" opacity=".86"/>
    <path d="M568 188C654 252 655 350 584 427C639 397 672 351 675 294C708 358 696 424 634 477C718 435 744 344 706 270C680 222 628 186 568 188Z" opacity=".82"/>
    <path d="M420 559C337 604 326 698 377 782C407 712 456 669 522 649C491 602 451 571 420 559Z" opacity=".86"/>
    <path d="M604 559C687 604 698 698 647 782C617 712 568 669 502 649C533 602 573 571 604 559Z" opacity=".78"/>
    <path d="M512 728C575 798 574 884 512 928C450 884 449 798 512 728Z"/>
  </g>
  <g fill="none" stroke="#000" stroke-linecap="round" stroke-linejoin="round">
    <path d="M489 178C471 254 488 316 547 365" stroke-width="22"/>
    <path d="M535 198C513 289 446 329 392 374" stroke-width="22"/>
    <path d="M618 255C622 365 557 430 463 448" stroke-width="22"/>
  </g>
  <g fill="none" stroke="url(#light)" stroke-linecap="round" stroke-linejoin="round">
    <path d="M508 319C422 372 406 426 462 490C528 566 590 620 519 704C481 750 460 804 489 861" stroke-width="31"/>
    <path d="M555 301C594 393 556 451 478 504C411 550 406 615 476 676C545 738 563 799 512 883" stroke-width="31"/>
    <path d="M459 454H578" stroke-width="18"/>
    <path d="M430 509H544" stroke-width="18"/>
    <path d="M438 569H585" stroke-width="18"/>
    <path d="M472 631H552" stroke-width="18"/>
  </g>
  <g fill="#000">
    <path d="M493 763C460 793 459 829 468 863C481 827 501 809 529 798C515 782 504 771 493 763Z"/>
    <path d="M531 763C564 793 565 829 556 863C543 827 523 809 495 798C509 782 520 771 531 763Z"/>
  </g>
  <g fill="none" stroke="url(#light)" stroke-linecap="round">
    <path d="M399 331C248 405 151 498 185 578C219 658 341 667 449 649" stroke-width="16"/>
    <path d="M388 354C250 426 181 500 205 554C229 608 330 620 442 601" stroke-width="9" opacity=".75"/>
    <path d="M638 260C808 247 868 336 829 441C804 507 730 566 655 606" stroke-width="16"/>
  </g>
  <g fill="url(#light)">
    <circle cx="304" cy="331" r="16"/><circle cx="242" cy="362" r="11"/><circle cx="219" cy="407" r="8"/><circle cx="184" cy="449" r="5"/><circle cx="225" cy="632" r="8"/><circle cx="279" cy="648" r="12"/>
    <circle cx="699" cy="215" r="10"/><circle cx="745" cy="219" r="4"/><circle cx="831" cy="285" r="11"/><circle cx="852" cy="362" r="8"/><circle cx="812" cy="404" r="8"/><circle cx="758" cy="459" r="7"/>
  </g>
</svg>
