<svg xmlns="http://www.w3.org/2000/svg" viewBox="0 0 920 520" role="img" aria-labelledby="title desc">
<title id="title">OmicVerse organization map</title><desc id="desc">Map of the OmicVerse open-source organization.</desc>
<defs><linearGradient id="b" x1="0" x2="1" y1="0" y2="1"><stop offset="0" stop-color="#2878b8"/><stop offset="1" stop-color="#1f9a8a"/></linearGradient><linearGradient id="s" x1="0" x2="1" y1="0" y2="1"><stop offset="0" stop-color="#eef8ff"/><stop offset="1" stop-color="#eefaf6"/></linearGradient></defs>
<rect width="920" height="520" rx="28" fill="url(#s)"/>
<g stroke="#c9dce6" stroke-width="2" fill="none"><path d="M460 246C330 140 200 140 132 208M460 246C594 140 730 144 792 210M460 246C330 360 204 364 130 302M460 246C592 360 724 364 790 304M460 246V108M460 246V414"/></g>
<g font-family="Atkinson Hyperlegible, sans-serif"><rect x="332" y="184" width="256" height="126" rx="24" fill="#fff" stroke="#b9d4df"/><circle cx="376" cy="247" r="26" fill="url(#b)"/><text x="423" y="238" font-size="22" font-weight="700" fill="#102b3c">OmicVerse</text><text x="423" y="266" font-size="15" fill="#5f7080">shared APIs and packages</text><g fill="#fff" stroke="#d7e6ec"><rect x="64" y="162" width="180" height="84" rx="18"/><rect x="676" y="162" width="180" height="84" rx="18"/><rect x="64" y="282" width="180" height="84" rx="18"/><rect x="676" y="282" width="180" height="84" rx="18"/><rect x="344" y="54" width="232" height="72" rx="18"/><rect x="344" y="394" width="232" height="72" rx="18"/></g><g fill="#102b3c" font-size="18" font-weight="700"><text x="154" y="198" text-anchor="middle">Users</text><text x="766" y="198" text-anchor="middle">Maintainers</text><text x="154" y="318" text-anchor="middle">Tutorials</text><text x="766" y="318" text-anchor="middle">Agents</text><text x="460" y="88" text-anchor="middle">Packages</text><text x="460" y="428" text-anchor="middle">Benchmarks</text></g><g fill="#5f7080" font-size="13"><text x="154" y="221" text-anchor="middle">install, analyze, cite</text><text x="766" y="221" text-anchor="middle">review, release, govern</text><text x="154" y="341" text-anchor="middle">reproducible workflows</text><text x="766" y="341" text-anchor="middle">plan, run, report</text><text x="460" y="109" text-anchor="middle">core, ports, runtime</text><text x="460" y="449" text-anchor="middle">parity and performance</text></g></g>
</svg>
