<svg xmlns="http://www.w3.org/2000/svg" viewBox="0 0 720 420"><rect width="720" height="420" rx="26" fill="#fff"/><g stroke="#d9e6ed" stroke-width="2"><path d="M360 202L168 104M360 202L560 102M360 202L152 300M360 202L564 302M360 202L360 68M360 202L360 346"/></g><g font-family="Atkinson Hyperlegible,sans-serif"><circle cx="360" cy="202" r="64" fill="#2878b8"/><text x="360" y="198" text-anchor="middle" font-size="22" font-weight="700" fill="#fff">omicverse</text><text x="360" y="224" text-anchor="middle" font-size="13" fill="#e5f4ff">core API</text><g fill="#f7f9fb" stroke="#dce8ee"><circle cx="168" cy="104" r="50"/><circle cx="560" cy="102" r="50"/><circle cx="152" cy="300" r="50"/><circle cx="564" cy="302" r="50"/><circle cx="360" cy="68" r="46"/><circle cx="360" cy="346" r="46"/></g><g fill="#17212b" font-size="15" font-weight="700"><text x="168" y="100" text-anchor="middle">ports</text><text x="560" y="98" text-anchor="middle">runtime</text><text x="152" y="296" text-anchor="middle">tutorials</text><text x="564" y="298" text-anchor="middle">agents</text><text x="360" y="64" text-anchor="middle">data</text><text x="360" y="342" text-anchor="middle">docs</text></g></g></svg>
