<svg xmlns="http://www.w3.org/2000/svg" viewBox="0 0 840 260"><rect width="840" height="260" rx="26" fill="#fbfdfe"/><g font-family="Atkinson Hyperlegible,sans-serif"><g transform="translate(36 54)"><rect width="150" height="122" rx="18" fill="#eef6ff" stroke="#cbddeb"/><text x="75" y="48" text-anchor="middle" font-size="20" font-weight="700" fill="#102b3c">R method</text><text x="75" y="78" text-anchor="middle" font-size="14" fill="#5f7080">trusted package</text></g><g transform="translate(242 54)"><rect width="150" height="122" rx="18" fill="#effaf7" stroke="#c9e5dd"/><text x="75" y="48" text-anchor="middle" font-size="20" font-weight="700" fill="#102b3c">Port</text><text x="75" y="78" text-anchor="middle" font-size="14" fill="#5f7080">Python / Rust</text></g><g transform="translate(448 54)"><rect width="150" height="122" rx="18" fill="#fff7e8" stroke="#ead9bc"/><text x="75" y="48" text-anchor="middle" font-size="20" font-weight="700" fill="#102b3c">Validate</text><text x="75" y="78" text-anchor="middle" font-size="14" fill="#5f7080">parity + benchmarks</text></g><g transform="translate(654 54)"><rect width="150" height="122" rx="18" fill="#f1f0fb" stroke="#dad8ef"/><text x="75" y="48" text-anchor="middle" font-size="20" font-weight="700" fill="#102b3c">Activate</text><text x="75" y="78" text-anchor="middle" font-size="14" fill="#5f7080">API + agent skill</text></g></g><g stroke="#2878b8" stroke-width="2.5" fill="none" stroke-linecap="round" stroke-linejoin="round"><path d="M194 115H230m-8-7 8 7-8 7M400 115H436m-8-7 8 7-8 7M606 115H642m-8-7 8 7-8 7"/></g></svg>
